TITLE ""
FILE "Step4_Track01.mp3" MP3
  TRACK 01 AUDIO
    TITLE "Step4_Track01_01"
    INDEX 01 00:00:00
  TRACK 02 AUDIO
    TITLE "Step4_Track01_02"
    INDEX 01 00:00:20
  TRACK 03 AUDIO
    TITLE "Step4_Track01_03"
    INDEX 01 00:01:43
  TRACK 04 AUDIO
    TITLE "Step4_Track01_04"
    INDEX 01 00:02:27
  TRACK 05 AUDIO
    TITLE "Step4_Track01_05"
    INDEX 01 00:03:22
  TRACK 06 AUDIO
    TITLE "Step4_Track01_06"
    INDEX 01 00:03:40
  TRACK 07 AUDIO
    TITLE "Step4_Track01_07"
    INDEX 01 00:05:11
  TRACK 08 AUDIO
    TITLE "Step4_Track01_08"
    INDEX 01 00:05:21
  TRACK 09 AUDIO
    TITLE "Step4_Track01_09"
    INDEX 01 00:06:23
  TRACK 10 AUDIO
    TITLE "Step4_Track01_10"
    INDEX 01 00:06:25
  TRACK 11 AUDIO
    TITLE "Step4_Track01_11"
    INDEX 01 00:08:08
  TRACK 12 AUDIO
    TITLE "Step4_Track01_12"
    INDEX 01 00:08:18
  TRACK 13 AUDIO
    TITLE "Step4_Track01_13"
    INDEX 01 00:09:17
  TRACK 14 AUDIO
    TITLE "Step4_Track01_14"
    INDEX 01 00:09:19
  TRACK 15 AUDIO
    TITLE "Step4_Track01_15"
    INDEX 01 00:11:57
  TRACK 16 AUDIO
    TITLE "Step4_Track01_16"
    INDEX 01 00:11:67
  TRACK 17 AUDIO
    TITLE "Step4_Track01_17"
    INDEX 01 00:12:66
  TRACK 18 AUDIO
    TITLE "Step4_Track01_18"
    INDEX 01 00:12:72
  TRACK 19 AUDIO
    TITLE "Step4_Track01_19"
    INDEX 01 00:15:18
  TRACK 20 AUDIO
    TITLE "Step4_Track01_20"
    INDEX 01 00:15:37
  TRACK 21 AUDIO
    TITLE "Step4_Track01_21"
    INDEX 01 00:16:41
  TRACK 22 AUDIO
    TITLE "Step4_Track01_22"
    INDEX 01 00:16:45
  TRACK 23 AUDIO
    TITLE "Step4_Track01_23"
    INDEX 01 00:19:17
  TRACK 24 AUDIO
    TITLE "Step4_Track01_24"
    INDEX 01 00:19:27
  TRACK 25 AUDIO
    TITLE "Step4_Track01_25"
    INDEX 01 00:20:29
  TRACK 26 AUDIO
    TITLE "Step4_Track01_26"
    INDEX 01 00:20:40
  TRACK 27 AUDIO
    TITLE "Step4_Track01_27"
    INDEX 01 00:22:33
  TRACK 28 AUDIO
    TITLE "Step4_Track01_28"
    INDEX 01 00:22:39
  TRACK 29 AUDIO
    TITLE "Step4_Track01_29"
    INDEX 01 00:23:39
  TRACK 30 AUDIO
    TITLE "Step4_Track01_30"
    INDEX 01 00:23:54
  TRACK 31 AUDIO
    TITLE "Step4_Track01_31"
    INDEX 01 00:27:44
  TRACK 32 AUDIO
    TITLE "Step4_Track01_32"
    INDEX 01 00:27:60
  TRACK 33 AUDIO
    TITLE "Step4_Track01_33"
    INDEX 01 00:28:48
  TRACK 34 AUDIO
    TITLE "Step4_Track01_34"
    INDEX 01 00:28:65
  TRACK 35 AUDIO
    TITLE "Step4_Track01_35"
    INDEX 01 00:31:23
  TRACK 36 AUDIO
    TITLE "Step4_Track01_36"
    INDEX 01 00:31:34
  TRACK 37 AUDIO
    TITLE "Step4_Track01_37"
    INDEX 01 00:32:36
  TRACK 38 AUDIO
    TITLE "Step4_Track01_38"
    INDEX 01 00:32:44
  TRACK 39 AUDIO
    TITLE "Step4_Track01_39"
    INDEX 01 00:34:62
  TRACK 40 AUDIO
    TITLE "Step4_Track01_40"
    INDEX 01 00:35:01
  TRACK 41 AUDIO
    TITLE "Step4_Track01_41"
    INDEX 01 00:35:69
  TRACK 42 AUDIO
    TITLE "Step4_Track01_42"
    INDEX 01 00:36:08
  TRACK 43 AUDIO
    TITLE "Step4_Track01_43"
    INDEX 01 00:38:15
